<mxfile host="app.diagrams.net" modified="2024-02-26T22:13:20.663Z" agent="Mozilla/5.0 (Windows NT 10.0; Win64; x64) AppleWebKit/537.36 (KHTML, like Gecko) Chrome/122.0.0.0 Safari/537.36" etag="-fYKO8ebsFmVrgCqQ0C2" version="23.1.7" type="github">
  <diagram id="R2lEEEUBdFMjLlhIrx00" name="Page-1">
    <mxGraphModel dx="1909" dy="1060" grid="1" gridSize="10" guides="1" tooltips="1" connect="1" arrows="1" fold="1" page="1" pageScale="1" pageWidth="850" pageHeight="1100" math="0" shadow="0" extFonts="Permanent Marker^https://fonts.googleapis.com/css?family=Permanent+Marker">
      <root>
        <mxCell id="0" />
        <mxCell id="1" parent="0" />
        <mxCell id="PMgARAvoAh8GTis-ykh_-34" style="rounded=0;orthogonalLoop=1;jettySize=auto;html=1;entryX=0;entryY=0.5;entryDx=0;entryDy=0;strokeColor=default;endArrow=none;endFill=0;" edge="1" parent="1" source="PMgARAvoAh8GTis-ykh_-3" target="PMgARAvoAh8GTis-ykh_-32">
          <mxGeometry relative="1" as="geometry" />
        </mxCell>
        <mxCell id="PMgARAvoAh8GTis-ykh_-12" style="edgeStyle=none;curved=1;rounded=0;orthogonalLoop=1;jettySize=auto;html=1;fontSize=12;startSize=8;endSize=8;endArrow=none;endFill=0;entryX=0.235;entryY=0.835;entryDx=0;entryDy=0;entryPerimeter=0;" edge="1" parent="1" source="PMgARAvoAh8GTis-ykh_-3" target="PMgARAvoAh8GTis-ykh_-11">
          <mxGeometry relative="1" as="geometry">
            <mxPoint x="700" y="90" as="targetPoint" />
          </mxGeometry>
        </mxCell>
        <mxCell id="C-vyLk0tnHw3VtMMgP7b-12" value="" style="edgeStyle=entityRelationEdgeStyle;endArrow=ERzeroToMany;startArrow=ERone;endFill=1;startFill=0;rounded=0;" parent="1" target="C-vyLk0tnHw3VtMMgP7b-17" edge="1">
          <mxGeometry width="100" height="100" relative="1" as="geometry">
            <mxPoint x="700" y="165" as="sourcePoint" />
            <mxPoint x="460" y="205" as="targetPoint" />
          </mxGeometry>
        </mxCell>
        <mxCell id="PMgARAvoAh8GTis-ykh_-10" style="edgeStyle=none;curved=1;rounded=0;orthogonalLoop=1;jettySize=auto;html=1;fontSize=12;endArrow=none;endFill=0;" edge="1" parent="1" source="PMgARAvoAh8GTis-ykh_-3" target="PMgARAvoAh8GTis-ykh_-9">
          <mxGeometry relative="1" as="geometry" />
        </mxCell>
        <mxCell id="PMgARAvoAh8GTis-ykh_-16" value="" style="edgeStyle=none;rounded=0;orthogonalLoop=1;jettySize=auto;html=1;strokeColor=default;align=center;verticalAlign=middle;fontFamily=Helvetica;fontSize=12;fontColor=default;labelBackgroundColor=default;startSize=8;endArrow=none;endFill=0;endSize=8;" edge="1" parent="1" source="PMgARAvoAh8GTis-ykh_-3" target="PMgARAvoAh8GTis-ykh_-9">
          <mxGeometry relative="1" as="geometry" />
        </mxCell>
        <mxCell id="PMgARAvoAh8GTis-ykh_-21" value="" style="edgeStyle=none;rounded=0;orthogonalLoop=1;jettySize=auto;html=1;strokeColor=default;align=center;verticalAlign=middle;fontFamily=Helvetica;fontSize=12;fontColor=default;labelBackgroundColor=default;startSize=8;endArrow=none;endFill=0;endSize=8;" edge="1" parent="1" source="PMgARAvoAh8GTis-ykh_-3" target="PMgARAvoAh8GTis-ykh_-9">
          <mxGeometry relative="1" as="geometry" />
        </mxCell>
        <mxCell id="PMgARAvoAh8GTis-ykh_-67" style="edgeStyle=none;rounded=0;orthogonalLoop=1;jettySize=auto;html=1;entryX=0.5;entryY=0;entryDx=0;entryDy=0;strokeColor=default;align=center;verticalAlign=middle;fontFamily=Helvetica;fontSize=11;fontColor=default;labelBackgroundColor=default;endArrow=none;endFill=0;" edge="1" parent="1" source="PMgARAvoAh8GTis-ykh_-3" target="PMgARAvoAh8GTis-ykh_-66">
          <mxGeometry relative="1" as="geometry" />
        </mxCell>
        <mxCell id="PMgARAvoAh8GTis-ykh_-3" value="Department" style="rounded=0;whiteSpace=wrap;html=1;" vertex="1" parent="1">
          <mxGeometry x="530" y="140" width="120" height="60" as="geometry" />
        </mxCell>
        <mxCell id="PMgARAvoAh8GTis-ykh_-40" style="edgeStyle=none;rounded=0;orthogonalLoop=1;jettySize=auto;html=1;strokeColor=default;align=center;verticalAlign=middle;fontFamily=Helvetica;fontSize=11;fontColor=default;labelBackgroundColor=default;endArrow=none;endFill=0;" edge="1" parent="1" source="PMgARAvoAh8GTis-ykh_-4" target="PMgARAvoAh8GTis-ykh_-41">
          <mxGeometry relative="1" as="geometry">
            <mxPoint x="720" y="380" as="targetPoint" />
          </mxGeometry>
        </mxCell>
        <mxCell id="PMgARAvoAh8GTis-ykh_-44" style="edgeStyle=none;rounded=0;orthogonalLoop=1;jettySize=auto;html=1;strokeColor=default;align=center;verticalAlign=middle;fontFamily=Helvetica;fontSize=11;fontColor=default;labelBackgroundColor=default;endArrow=none;endFill=0;" edge="1" parent="1" source="PMgARAvoAh8GTis-ykh_-4" target="PMgARAvoAh8GTis-ykh_-42">
          <mxGeometry relative="1" as="geometry" />
        </mxCell>
        <mxCell id="PMgARAvoAh8GTis-ykh_-4" value="Project" style="rounded=0;whiteSpace=wrap;html=1;" vertex="1" parent="1">
          <mxGeometry x="530" y="340" width="120" height="60" as="geometry" />
        </mxCell>
        <mxCell id="PMgARAvoAh8GTis-ykh_-46" style="edgeStyle=none;rounded=0;orthogonalLoop=1;jettySize=auto;html=1;strokeColor=default;align=center;verticalAlign=middle;fontFamily=Helvetica;fontSize=11;fontColor=default;labelBackgroundColor=default;endArrow=none;endFill=0;" edge="1" parent="1" source="PMgARAvoAh8GTis-ykh_-5" target="PMgARAvoAh8GTis-ykh_-47">
          <mxGeometry relative="1" as="geometry">
            <mxPoint x="325" y="310" as="targetPoint" />
          </mxGeometry>
        </mxCell>
        <mxCell id="PMgARAvoAh8GTis-ykh_-48" style="edgeStyle=none;rounded=0;orthogonalLoop=1;jettySize=auto;html=1;strokeColor=default;align=center;verticalAlign=middle;fontFamily=Helvetica;fontSize=11;fontColor=default;labelBackgroundColor=default;endArrow=none;endFill=0;" edge="1" parent="1" source="PMgARAvoAh8GTis-ykh_-5" target="PMgARAvoAh8GTis-ykh_-49">
          <mxGeometry relative="1" as="geometry">
            <mxPoint x="225" y="300" as="targetPoint" />
          </mxGeometry>
        </mxCell>
        <mxCell id="PMgARAvoAh8GTis-ykh_-58" style="edgeStyle=none;rounded=0;orthogonalLoop=1;jettySize=auto;html=1;strokeColor=default;align=center;verticalAlign=middle;fontFamily=Helvetica;fontSize=11;fontColor=default;labelBackgroundColor=default;endArrow=none;endFill=0;" edge="1" parent="1" source="PMgARAvoAh8GTis-ykh_-5" target="PMgARAvoAh8GTis-ykh_-59">
          <mxGeometry relative="1" as="geometry">
            <mxPoint x="95" y="260" as="targetPoint" />
          </mxGeometry>
        </mxCell>
        <mxCell id="PMgARAvoAh8GTis-ykh_-60" style="edgeStyle=none;rounded=0;orthogonalLoop=1;jettySize=auto;html=1;strokeColor=default;align=center;verticalAlign=middle;fontFamily=Helvetica;fontSize=11;fontColor=default;labelBackgroundColor=default;endArrow=none;endFill=0;" edge="1" parent="1" source="PMgARAvoAh8GTis-ykh_-5" target="PMgARAvoAh8GTis-ykh_-61">
          <mxGeometry relative="1" as="geometry">
            <mxPoint x="95" y="190" as="targetPoint" />
          </mxGeometry>
        </mxCell>
        <mxCell id="PMgARAvoAh8GTis-ykh_-62" style="edgeStyle=none;rounded=0;orthogonalLoop=1;jettySize=auto;html=1;strokeColor=default;align=center;verticalAlign=middle;fontFamily=Helvetica;fontSize=11;fontColor=default;labelBackgroundColor=default;endArrow=none;endFill=0;" edge="1" parent="1" source="PMgARAvoAh8GTis-ykh_-5" target="PMgARAvoAh8GTis-ykh_-63">
          <mxGeometry relative="1" as="geometry">
            <mxPoint x="375" y="220" as="targetPoint" />
          </mxGeometry>
        </mxCell>
        <mxCell id="PMgARAvoAh8GTis-ykh_-64" style="edgeStyle=none;rounded=0;orthogonalLoop=1;jettySize=auto;html=1;strokeColor=default;align=center;verticalAlign=middle;fontFamily=Helvetica;fontSize=11;fontColor=default;labelBackgroundColor=default;endArrow=none;endFill=0;" edge="1" parent="1" source="PMgARAvoAh8GTis-ykh_-5" target="PMgARAvoAh8GTis-ykh_-65">
          <mxGeometry relative="1" as="geometry">
            <mxPoint x="355" y="170" as="targetPoint" />
          </mxGeometry>
        </mxCell>
        <mxCell id="PMgARAvoAh8GTis-ykh_-5" value="Employee" style="rounded=0;whiteSpace=wrap;html=1;" vertex="1" parent="1">
          <mxGeometry x="220" y="170" width="120" height="60" as="geometry" />
        </mxCell>
        <mxCell id="PMgARAvoAh8GTis-ykh_-9" value="Nama" style="ellipse;whiteSpace=wrap;html=1;rounded=0;" vertex="1" parent="1">
          <mxGeometry x="610" y="20" width="80" height="40" as="geometry" />
        </mxCell>
        <mxCell id="PMgARAvoAh8GTis-ykh_-11" value="Nomor" style="ellipse;whiteSpace=wrap;html=1;rounded=0;" vertex="1" parent="1">
          <mxGeometry x="690" y="50" width="80" height="40" as="geometry" />
        </mxCell>
        <mxCell id="PMgARAvoAh8GTis-ykh_-32" value="Lokasi" style="whiteSpace=wrap;html=1;rounded=0;shape=doubleEllipse;perimeter=ellipsePerimeter;margin=3;" vertex="1" parent="1">
          <mxGeometry x="720" y="140" width="80" height="40" as="geometry" />
        </mxCell>
        <mxCell id="PMgARAvoAh8GTis-ykh_-39" style="edgeStyle=none;rounded=0;orthogonalLoop=1;jettySize=auto;html=1;entryX=0.5;entryY=0;entryDx=0;entryDy=0;strokeColor=default;align=center;verticalAlign=middle;fontFamily=Helvetica;fontSize=11;fontColor=default;labelBackgroundColor=default;endArrow=none;endFill=0;" edge="1" parent="1" source="PMgARAvoAh8GTis-ykh_-32" target="PMgARAvoAh8GTis-ykh_-32">
          <mxGeometry relative="1" as="geometry" />
        </mxCell>
        <mxCell id="PMgARAvoAh8GTis-ykh_-41" value="Nama" style="ellipse;whiteSpace=wrap;html=1;align=center;fontFamily=Helvetica;fontSize=11;fontColor=default;labelBackgroundColor=default;" vertex="1" parent="1">
          <mxGeometry x="670" y="360" width="100" height="40" as="geometry" />
        </mxCell>
        <mxCell id="PMgARAvoAh8GTis-ykh_-42" value="Nomor&lt;span style=&quot;white-space: pre;&quot;&gt;&#x9;&lt;/span&gt;" style="ellipse;whiteSpace=wrap;html=1;align=center;fontFamily=Helvetica;fontSize=11;fontColor=default;labelBackgroundColor=default;" vertex="1" parent="1">
          <mxGeometry x="660" y="420" width="100" height="40" as="geometry" />
        </mxCell>
        <mxCell id="PMgARAvoAh8GTis-ykh_-43" value="Lokasi" style="ellipse;whiteSpace=wrap;html=1;align=center;fontFamily=Helvetica;fontSize=11;fontColor=default;labelBackgroundColor=default;" vertex="1" parent="1">
          <mxGeometry x="550" y="450" width="100" height="40" as="geometry" />
        </mxCell>
        <mxCell id="PMgARAvoAh8GTis-ykh_-45" style="edgeStyle=none;rounded=0;orthogonalLoop=1;jettySize=auto;html=1;entryX=0.462;entryY=0.064;entryDx=0;entryDy=0;entryPerimeter=0;strokeColor=default;align=center;verticalAlign=middle;fontFamily=Helvetica;fontSize=11;fontColor=default;labelBackgroundColor=default;endArrow=none;endFill=0;" edge="1" parent="1" source="PMgARAvoAh8GTis-ykh_-4" target="PMgARAvoAh8GTis-ykh_-43">
          <mxGeometry relative="1" as="geometry" />
        </mxCell>
        <mxCell id="PMgARAvoAh8GTis-ykh_-47" value="SSN" style="ellipse;whiteSpace=wrap;html=1;align=center;fontFamily=Helvetica;fontSize=11;fontColor=default;labelBackgroundColor=default;" vertex="1" parent="1">
          <mxGeometry x="10" y="220" width="100" height="40" as="geometry" />
        </mxCell>
        <mxCell id="PMgARAvoAh8GTis-ykh_-53" value="" style="edgeStyle=none;rounded=0;orthogonalLoop=1;jettySize=auto;html=1;strokeColor=default;align=center;verticalAlign=middle;fontFamily=Helvetica;fontSize=11;fontColor=default;labelBackgroundColor=default;endArrow=none;endFill=0;entryX=1;entryY=0;entryDx=0;entryDy=0;" edge="1" parent="1" source="PMgARAvoAh8GTis-ykh_-49" target="PMgARAvoAh8GTis-ykh_-52">
          <mxGeometry relative="1" as="geometry">
            <mxPoint x="98.06763683209488" y="162.25566397531156" as="targetPoint" />
          </mxGeometry>
        </mxCell>
        <mxCell id="PMgARAvoAh8GTis-ykh_-55" style="edgeStyle=none;rounded=0;orthogonalLoop=1;jettySize=auto;html=1;strokeColor=default;align=center;verticalAlign=middle;fontFamily=Helvetica;fontSize=11;fontColor=default;labelBackgroundColor=default;endArrow=none;endFill=0;" edge="1" parent="1" source="PMgARAvoAh8GTis-ykh_-49" target="PMgARAvoAh8GTis-ykh_-54">
          <mxGeometry relative="1" as="geometry" />
        </mxCell>
        <mxCell id="PMgARAvoAh8GTis-ykh_-57" style="edgeStyle=none;rounded=0;orthogonalLoop=1;jettySize=auto;html=1;strokeColor=default;align=center;verticalAlign=middle;fontFamily=Helvetica;fontSize=11;fontColor=default;labelBackgroundColor=default;endArrow=none;endFill=0;" edge="1" parent="1" source="PMgARAvoAh8GTis-ykh_-49" target="PMgARAvoAh8GTis-ykh_-56">
          <mxGeometry relative="1" as="geometry" />
        </mxCell>
        <mxCell id="PMgARAvoAh8GTis-ykh_-49" value="Name" style="ellipse;whiteSpace=wrap;html=1;align=center;fontFamily=Helvetica;fontSize=11;fontColor=default;labelBackgroundColor=default;" vertex="1" parent="1">
          <mxGeometry x="155" y="60" width="100" height="40" as="geometry" />
        </mxCell>
        <mxCell id="PMgARAvoAh8GTis-ykh_-52" value="First" style="ellipse;whiteSpace=wrap;html=1;align=center;fontFamily=Helvetica;fontSize=11;fontColor=default;labelBackgroundColor=default;" vertex="1" parent="1">
          <mxGeometry x="20" y="50" width="100" height="40" as="geometry" />
        </mxCell>
        <mxCell id="PMgARAvoAh8GTis-ykh_-54" value="Middle" style="ellipse;whiteSpace=wrap;html=1;align=center;fontFamily=Helvetica;fontSize=11;fontColor=default;labelBackgroundColor=default;" vertex="1" parent="1">
          <mxGeometry x="120" width="100" height="40" as="geometry" />
        </mxCell>
        <mxCell id="PMgARAvoAh8GTis-ykh_-56" value="Last" style="ellipse;whiteSpace=wrap;html=1;align=center;fontFamily=Helvetica;fontSize=11;fontColor=default;labelBackgroundColor=default;" vertex="1" parent="1">
          <mxGeometry x="230" width="100" height="40" as="geometry" />
        </mxCell>
        <mxCell id="PMgARAvoAh8GTis-ykh_-59" value="Address" style="ellipse;whiteSpace=wrap;html=1;align=center;fontFamily=Helvetica;fontSize=11;fontColor=default;labelBackgroundColor=default;" vertex="1" parent="1">
          <mxGeometry x="40" y="170" width="100" height="40" as="geometry" />
        </mxCell>
        <mxCell id="PMgARAvoAh8GTis-ykh_-61" value="Sex" style="ellipse;whiteSpace=wrap;html=1;align=center;fontFamily=Helvetica;fontSize=11;fontColor=default;labelBackgroundColor=default;" vertex="1" parent="1">
          <mxGeometry x="55" y="120" width="100" height="40" as="geometry" />
        </mxCell>
        <mxCell id="PMgARAvoAh8GTis-ykh_-63" value="Salary" style="ellipse;whiteSpace=wrap;html=1;align=center;fontFamily=Helvetica;fontSize=11;fontColor=default;labelBackgroundColor=default;" vertex="1" parent="1">
          <mxGeometry x="70" y="270" width="100" height="40" as="geometry" />
        </mxCell>
        <mxCell id="PMgARAvoAh8GTis-ykh_-65" value="Birthday" style="ellipse;whiteSpace=wrap;html=1;align=center;fontFamily=Helvetica;fontSize=11;fontColor=default;labelBackgroundColor=default;" vertex="1" parent="1">
          <mxGeometry x="270" y="90" width="100" height="40" as="geometry" />
        </mxCell>
        <mxCell id="PMgARAvoAh8GTis-ykh_-68" style="edgeStyle=none;rounded=0;orthogonalLoop=1;jettySize=auto;html=1;entryX=0.5;entryY=0;entryDx=0;entryDy=0;strokeColor=default;align=center;verticalAlign=middle;fontFamily=Helvetica;fontSize=11;fontColor=default;labelBackgroundColor=default;endArrow=none;endFill=0;" edge="1" parent="1" source="PMgARAvoAh8GTis-ykh_-66" target="PMgARAvoAh8GTis-ykh_-4">
          <mxGeometry relative="1" as="geometry" />
        </mxCell>
        <mxCell id="PMgARAvoAh8GTis-ykh_-66" value="Mengontrol" style="shape=rhombus;perimeter=rhombusPerimeter;whiteSpace=wrap;html=1;align=center;fontFamily=Helvetica;fontSize=11;fontColor=default;labelBackgroundColor=default;" vertex="1" parent="1">
          <mxGeometry x="530" y="250" width="120" height="60" as="geometry" />
        </mxCell>
        <mxCell id="PMgARAvoAh8GTis-ykh_-71" style="edgeStyle=none;rounded=0;orthogonalLoop=1;jettySize=auto;html=1;entryX=0;entryY=0.75;entryDx=0;entryDy=0;strokeColor=default;align=center;verticalAlign=middle;fontFamily=Helvetica;fontSize=11;fontColor=default;labelBackgroundColor=default;endArrow=none;endFill=0;" edge="1" parent="1" source="PMgARAvoAh8GTis-ykh_-69" target="PMgARAvoAh8GTis-ykh_-3">
          <mxGeometry relative="1" as="geometry" />
        </mxCell>
        <mxCell id="PMgARAvoAh8GTis-ykh_-69" value="Me-manage" style="shape=rhombus;perimeter=rhombusPerimeter;whiteSpace=wrap;html=1;align=center;fontFamily=Helvetica;fontSize=11;fontColor=default;labelBackgroundColor=default;" vertex="1" parent="1">
          <mxGeometry x="370" y="160" width="120" height="60" as="geometry" />
        </mxCell>
        <mxCell id="PMgARAvoAh8GTis-ykh_-70" style="edgeStyle=none;rounded=0;orthogonalLoop=1;jettySize=auto;html=1;entryX=0.09;entryY=0.627;entryDx=0;entryDy=0;entryPerimeter=0;strokeColor=default;align=center;verticalAlign=middle;fontFamily=Helvetica;fontSize=11;fontColor=default;labelBackgroundColor=default;endArrow=none;endFill=0;" edge="1" parent="1" source="PMgARAvoAh8GTis-ykh_-5" target="PMgARAvoAh8GTis-ykh_-69">
          <mxGeometry relative="1" as="geometry" />
        </mxCell>
      </root>
    </mxGraphModel>
  </diagram>
</mxfile>
